#!OML:ASF F:\VICON\USERDATA\INSTALL\rory3\rory3.ASF
:FULLY-SPECIFIED
:DEGREES
530
root -1.30631 15.4041 16.4956 -25.7568 -50.1123 -5.43396
lowerback -13.1902 -8.40366 4.05861
upperback -10.895 -11.6781 8.89104
thorax -3.19713 -5.89566 5.88249
lowerneck -3.11463 -11.4522 -14.6364
upperneck 44.6345 -18.4803 -4.03205
head 18.3888 -11.705 -2.77785
rclavicle 1.27222e-014 -7.79236e-014
rhumerus -14.8772 52.7935 -106.307
rradius 77.8591
rwrist -6.34057
rhand -13.9175 -60.1588
rfingers 7.12502
rthumb -167.791 810.217
lclavicle 1.27222e-014 -7.79236e-014
lhumerus 37.0392 5.50281 65.4848
lradius 31.9479
lwrist 55.2378
lhand -34.055 -11.5884
lfingers 7.12502
lthumb -7.23266 18.268
rfemur -52.5711 -11.4252 34.1964
rtibia 69.877
rfoot 4.63239 -12.3531
rtoes 16.9287
lfemur -19.8199 42.8224 -19.5687
ltibia 109.408
lfoot 13.1251 -23.1035
ltoes -6.50624
531
root -1.32634 15.4008 16.579 -26.8406 -49.976 -4.35515
lowerback -13.0525 -8.32219 3.66145
upperback -10.7924 -11.5238 8.75334
thorax -3.11856 -5.80077 5.96938
lowerneck -3.24298 -11.4667 -14.6219
upperneck 44.5746 -18.4385 -4.04243
head 18.3767 -11.6736 -2.78078
rclavicle 2.54444e-014 -7.95139e-015
rhumerus -14.5909 52.808 -106.14
rradius 77.733
rwrist -6.66688
rhand -13.5481 -59.8986
rfingers 7.12502
rthumb -167.435 810.499
lclavicle 2.54444e-014 -7.95139e-015
lhumerus 37.0493 5.35007 65.0828
lradius 32.0569
lwrist 55.2672
lhand -34.2839 -11.3763
lfingers 7.12502
lthumb -7.45363 18.4723
rfemur -52.3829 -11.5202 33.8319
rtibia 70.1439
rfoot 4.43019 -12.2519
rtoes 17.1346
lfemur -19.8599 42.9449 -19.8363
ltibia 109.589
lfoot 13.0588 -23.2726
ltoes -6.15061
532
root -1.34359 15.4062 16.656 -27.8232 -49.8507 -3.3386
lowerback -13.046 -8.22723 3.31217
upperback -10.7396 -11.3621 8.58232
thorax -3.04294 -5.70551 5.98474
lowerneck -3.28135 -11.4151 -14.3452
upperneck 44.6385 -18.3001 -4.23457
head 18.3393 -11.6013 -2.87779
rclavicle -4.77083e-014 -7.95139e-015
rhumerus -14.4808 52.7717 -106.177
rradius 77.5269
rwrist -6.87736
rhand -13.8259 -59.4499
rfingers 7.12502
rthumb -167.703 810.932
lclavicle -4.77083e-014 -7.95139e-015
lhumerus 37.0304 5.40425 64.949
lradius 31.8578
lwrist 55.1947
lhand -33.7928 -12.2485
lfingers 7.12502
lthumb -6.97951 17.6165
rfemur -52.2398 -11.5366 33.4561
rtibia 70.4238
rfoot 3.94318 -12.2606
rtoes 18.9793
lfemur -20.0073 43.0876 -20.09
ltibia 109.729
lfoot 12.7366 -23.6147
ltoes -7.76681
533
root -1.36305 15.4055 16.7334 -28.4596 -49.8841 -2.76833
lowerback -13.0587 -8.09082 3.36965
upperback -10.6947 -11.1855 8.46332
thorax -3.03595 -5.62141 5.84536
lowerneck -3.27024 -11.3024 -13.9344
upperneck 44.7711 -18.0664 -4.52
head 18.2902 -11.49 -3.0158
rclavicle -1.59028e-014 1.27222e-014
rhumerus -14.7164 52.5979 -106.761
rradius 77.2423
rwrist -6.66302
rhand -14.5547 -59.6126
rfingers 7.12502
rthumb -168.406 810.728
lclavicle -1.59028e-014 1.27222e-014
lhumerus 36.813 5.22724 64.5581
lradius 31.949
lwrist 55.4622
lhand -33.6912 -12.4016
lfingers 7.12502
lthumb -6.88149 17.4665
rfemur -52.0605 -11.5019 33.5152
rtibia 70.6229
rfoot 3.67511 -12.3219
rtoes 19.7654
lfemur -20.2723 43.3144 -19.86
ltibia 110.047
lfoot 12.6583 -23.9937
ltoes -8.6106
534
root -1.38235 15.3995 16.8143 -28.9116 -49.983 -2.39094
lowerback -13.1389 -7.91443 3.71623
upperback -10.6225 -10.9867 8.2954
thorax -3.02845 -5.54057 5.49445
lowerneck -3.22108 -11.2127 -13.5927
upperneck 44.8464 -17.9369 -4.63542
head 18.2416 -11.407 -3.08215
rclavicle 6.36111e-015 -1.59028e-014
rhumerus -15.0556 52.2059 -107.659
rradius 76.9417
rwrist -6.2321
rhand -14.8686 -60.0373
rfingers 7.12502
rthumb -168.709 810.287
lclavicle 6.36111e-015 -1.59028e-014
lhumerus 36.5297 4.90705 63.8944
lradius 32.302
lwrist 56.2967
lhand -33.5762 -11.904
lfingers 7.12502
lthumb -6.77048 17.9677
rfemur -51.915 -11.4241 33.769
rtibia 70.8022
rfoot 3.474 -12.4131
rtoes 20.004
lfemur -20.537 43.5686 -19.4449
ltibia 110.429
lfoot 12.9287 -24.1678
ltoes -7.60951
535
root -1.39951 15.4 16.8935 -29.4888 -49.9952 -1.75124
lowerback -13.2384 -7.75738 3.78881
upperback -10.5841 -10.789 8.11598
thorax -2.99511 -5.44813 5.27433
lowerneck -3.24384 -11.2162 -13.3439
upperneck 45.0176 -17.9345 -4.82894
head 18.281 -11.3977 -3.21688
rclavicle 1.90833e-014 -1.00187e-013
rhumerus -15.0573 51.9353 -108.023
rradius 76.658
rwrist -6.03815
rhand -14.6806 -60.1047
rfingers 7.12502
rthumb -168.527 810.229
lclavicle 1.90833e-014 -1.00187e-013
lhumerus 36.4565 4.83505 63.4948
lradius 32.3436
lwrist 57.1702
lhand -32.8127 -12.5029
lfingers 7.12502
lthumb -6.03342 17.3912
rfemur -51.8637 -11.2963 33.7452
rtibia 71.0162
rfoot 3.06771 -12.2883
rtoes 21.0291
lfemur -20.8753 43.7414 -19.4063
ltibia 110.717
lfoot 13.024 -24.2812
ltoes -7.69844
536
root -1.42 15.3999 16.9756 -30.4636 -49.9208 -0.700636
lowerback -13.2951 -7.63494 3.51136
upperback -10.5701 -10.5992 7.90261
thorax -2.95074 -5.34386 5.20909
lowerneck -2.98265 -11.1799 -13.3016
upperneck 45.0636 -17.9127 -4.91991
head 18.223 -11.4121 -3.23382
rclavicle 9.54166e-015 3.97569e-014
rhumerus -14.9782 51.9041 -108.104
rradius 76.4334
rwrist -6.10663
rhand -14.3617 -60.1619
rfingers 7.12502
rthumb -168.22 810.189
lclavicle 9.54166e-015 3.97569e-014
lhumerus 36.2321 4.54429 62.9653
lradius 32.4194
lwrist 57.3316
lhand -33.0241 -12.6609
lfingers 7.12502
lthumb -6.23747 17.2273
rfemur -51.6625 -11.2943 33.4975
rtibia 71.1249
rfoot 3.01685 -12.0062
rtoes 20.5213
lfemur -21.0721 43.8708 -19.679
ltibia 110.93
lfoot 12.6407 -24.4537
ltoes -8.86807
